<svg xmlns="http://www.w3.org/2000/svg" xmlns:xlink="http://www.w3.org/1999/xlink" width="52" height="52" viewBox="0 0 52 52">
  <defs>
    <clipPath id="clip-twitter">
      <rect width="52" height="52"/>
    </clipPath>
  </defs>
  <g id="twitter" clip-path="url(#clip-twitter)">
    <g id="iconfinder_Twitter_2062092" transform="translate(1.45 1)">
      <circle id="Ellipse_10" data-name="Ellipse 10" cx="24.999" cy="24.999" r="24.999" transform="translate(0 0)" fill="#1da1f2"/>
      <path id="Path_14" data-name="Path 14" d="M495.6,29.983a20.713,20.713,0,0,0,5.142-.551,9.32,9.32,0,0,0,3.661-2.036,6.681,6.681,0,0,1-3.332-1.188,8.57,8.57,0,0,1-2.221-3.1h2.715a8.808,8.808,0,0,1-3.538-2.418,8.019,8.019,0,0,1-1.316-3.945,7.03,7.03,0,0,0,1.316.594,6.682,6.682,0,0,0,1.4.255,8.707,8.707,0,0,1-2.468-3.9,7.89,7.89,0,0,1,.74-4.412,18.077,18.077,0,0,0,5.43,4.624,15.643,15.643,0,0,0,6.787,1.739s-.7-4.836,3.414-6.788a5.94,5.94,0,0,1,6.952,1.315,19.827,19.827,0,0,0,1.892-.636c.956-.382,1.933-.891,1.933-.891a8.892,8.892,0,0,1-.987,1.824,8.831,8.831,0,0,1-1.44,1.485s.9-.138,1.645-.339a9.41,9.41,0,0,0,1.316-.467,6.4,6.4,0,0,1-1.152,1.739,8.071,8.071,0,0,1-1.81,1.315,17.45,17.45,0,0,1-7.775,15.908C504.9,36.007,495.6,29.983,495.6,29.983Z" transform="translate(-484.994 4.464)" fill="#fff"/>
    </g>
  </g>
</svg>
